#!OML:ASF F:\VICON\USERDATA\INSTALL\rory3\rory3.ASF
:FULLY-SPECIFIED
:DEGREES
2496
root -1.99329 17.5894 -6.31029 -1.16256 53.6981 -5.93971
lowerback 7.30408 -3.10998 -7.05247
upperback 3.64423 -4.51425 -2.01303
thorax 0.0840064 -2.29731 2.16137
lowerneck -14.8305 -9.5409 -15.9416
upperneck 28.7661 -10.2293 4.16407
head 13.2834 -5.66578 2.59341
rclavicle 1.30005e-013 2.22639e-014
rhumerus 2.52808 3.73096 -37.2511
rradius 64.1293
rwrist -46.9021
rhand -20.2744 -3.47865
rfingers 7.12502
rthumb 6.07487 -33.3716
lclavicle 1.30005e-013 2.22639e-014
lhumerus -4.53108 -16.4522 84.4979
lradius 71.3715
lwrist 89.775
lhand -20.6631 41.5454
lfingers 7.12502
lthumb 5.69962 -288.551
rfemur -25.0966 2.58111 9.68962
rtibia 24.6459
rfoot -1.66111 -13.1991
rtoes 3.28037
lfemur -8.75795 4.52259 -13.4003
ltibia 31.4667
lfoot -20.5215 10.387
ltoes -19.0348
2497
root -2.00316 17.5791 -6.27029 -1.22389 54.0769 -5.96542
lowerback 7.2304 -3.17496 -7.02903
upperback 3.65597 -4.59172 -1.95844
thorax 0.146431 -2.33869 2.2033
lowerneck -14.7312 -9.52054 -15.9437
upperneck 28.7793 -10.1391 3.93987
head 13.246 -5.65501 2.52633
rclavicle 2.78299e-015 9.54166e-015
rhumerus 4.03618 1.53697 -37.356
rradius 61.0433
rwrist -48.6646
rhand -20.9379 -4.94712
rfingers 7.12502
rthumb 5.43431 -34.8574
lclavicle 2.78299e-015 9.54166e-015
lhumerus -3.87737 -16.7766 84.6772
lradius 70.0359
lwrist 90.3407
lhand -20.7887 42.7422
lfingers 7.12502
lthumb 5.57832 -287.351
rfemur -24.6157 2.50248 9.49182
rtibia 24.147
rfoot -1.12892 -12.2538
rtoes 3.09653
lfemur -8.70683 4.23958 -13.2367
ltibia 31.3921
lfoot -20.3692 10.2939
ltoes -19.6925
2498
root -2.0137 17.5728 -6.22991 -1.24534 54.4071 -5.95601
lowerback 7.1898 -3.24687 -6.96069
upperback 3.65881 -4.67903 -1.97632
thorax 0.172144 -2.3819 2.14912
lowerneck -14.7762 -9.52336 -15.8486
upperneck 28.9331 -10.1064 3.76779
head 13.2997 -5.65327 2.4482
rclavicle 1.11319e-014 -5.56597e-014
rhumerus 5.65762 -0.798581 -37.737
rradius 58.0235
rwrist -50.1963
rhand -21.8473 -5.97326
rfingers 7.12502
rthumb 4.55621 -35.9043
lclavicle 1.11319e-014 -5.56597e-014
lhumerus -2.97915 -17.201 84.7068
lradius 68.4651
lwrist 90.276
lhand -20.7709 43.8035
lfingers 7.12502
lthumb 5.59559 -286.29
rfemur -24.1979 2.47522 9.32375
rtibia 23.8262
rfoot -0.798449 -11.1393
rtoes 3.00961
lfemur -8.65823 4.21144 -13.0759
ltibia 31.2897
lfoot -20.3205 10.0271
ltoes -20.0368
2499
root -2.02386 17.5734 -6.1873 -1.04364 54.7201 -5.68893
lowerback 7.24389 -3.32731 -6.80484
upperback 3.55676 -4.78762 -2.20703
thorax 0.0114717 -2.42392 1.84097
lowerneck -14.7929 -9.50513 -15.7018
upperneck 29.2467 -10.1225 3.76679
head 13.4259 -5.65017 2.42158
rclavicle -1.55052e-014 -7.95139e-015
rhumerus 7.08488 -3.09149 -38.4446
rradius 55.3073
rwrist -51.6665
rhand -23.1927 -6.89821
rfingers 7.12502
rthumb 3.25704 -36.8531
lclavicle -1.55052e-014 -7.95139e-015
lhumerus -2.21015 -17.9095 84.4711
lradius 67.0252
lwrist 89.8858
lhand -22.7423 46.1189
lfingers 7.12502
lthumb 3.69199 -283.933
rfemur -23.8908 2.38353 8.98915
rtibia 23.6564
rfoot -0.587205 -9.9489
rtoes 1.48112
lfemur -8.59891 4.11192 -13.0911
ltibia 31.1736
lfoot -20.2838 9.79945
ltoes -20.1095
2500
root -2.03315 17.5735 -6.1461 -0.7361 55.0705 -5.37281
lowerback 7.35615 -3.42744 -6.38815
upperback 3.3347 -4.92054 -2.6172
thorax -0.345183 -2.46673 1.2181
lowerneck -14.6427 -9.42482 -15.3831
upperneck 29.6219 -10.1263 3.76215
head 13.5282 -5.6272 2.37669
rclavicle -1.23246e-014 -1.74931e-014
rhumerus 8.2419 -5.43363 -39.4127
rradius 52.8548
rwrist -52.7115
rhand -24.6987 -7.82926
rfingers 7.12502
rthumb 1.80257 -37.8014
lclavicle -1.23246e-014 -1.74931e-014
lhumerus -1.5089 -18.8966 84.0652
lradius 65.5916
lwrist 89.3361
lhand -24.1828 47.4274
lfingers 7.12502
lthumb 2.30078 -282.605
rfemur -23.7092 2.29102 8.60324
rtibia 23.6036
rfoot -0.606842 -9.05946
rtoes -0.953796
lfemur -8.60865 3.86399 -13.1626
ltibia 31.0575
lfoot -20.2344 9.70701
ltoes -20.2569
